<svg width="14" height="14" viewBox="0 0 14 14" fill="none" xmlns="http://www.w3.org/2000/svg">
<path d="M7 9.91671C7.30942 9.91671 7.60617 9.79379 7.82496 9.575C8.04375 9.35621 8.16667 9.05946 8.16667 8.75004C8.16667 8.10254 7.64167 7.58337 7 7.58337C6.69058 7.58337 6.39384 7.70629 6.17505 7.92508C5.95625 8.14388 5.83334 8.44062 5.83334 8.75004C5.83334 9.05946 5.95625 9.35621 6.17505 9.575C6.39384 9.79379 6.69058 9.91671 7 9.91671ZM10.5 4.66671C10.8094 4.66671 11.1062 4.78962 11.325 5.00842C11.5438 5.22721 11.6667 5.52395 11.6667 5.83337V11.6667C11.6667 11.9761 11.5438 12.2729 11.325 12.4917C11.1062 12.7105 10.8094 12.8334 10.5 12.8334H3.5C3.19058 12.8334 2.89384 12.7105 2.67504 12.4917C2.45625 12.2729 2.33334 11.9761 2.33334 11.6667V5.83337C2.33334 5.18587 2.85834 4.66671 3.5 4.66671H4.08334V3.50004C4.08334 2.72649 4.39063 1.98463 4.93761 1.43765C5.48459 0.890665 6.22645 0.583374 7 0.583374C7.38303 0.583374 7.7623 0.658816 8.11616 0.805392C8.47003 0.951968 8.79156 1.16681 9.0624 1.43765C9.33324 1.70848 9.54808 2.03001 9.69465 2.38388C9.84123 2.73775 9.91667 3.11702 9.91667 3.50004V4.66671H10.5ZM7 1.75004C6.53587 1.75004 6.09075 1.93442 5.76257 2.2626C5.43438 2.59079 5.25 3.03591 5.25 3.50004V4.66671H8.75V3.50004C8.75 3.03591 8.56563 2.59079 8.23744 2.2626C7.90925 1.93442 7.46413 1.75004 7 1.75004Z"
/>
</svg>
